# xmcd
#
# Track frame offsets:
# 150
# 5084
# 25552
# 51337
# 74487
# 89440
# 113254
# 131201
# 150452
# 161669
# 171963
# 195542
# 213438
# 225078
# 236115
# 262273
# 271589
# 292629
# 306722
# 326150
#
# Disc length: 4632 seconds
#
#
# Revision: 0
# Processed by: cddbd v1.5.1PL0 Copyright (c) Steve Scherf et al.
# Submitted via: FreeRIP 2.942 
#
DISCID=18121614
DTITLE=Red Hot hili Peppers - Greatest hits live
DYEAR=2003
DGENRE=Blues
TTITLE0=Opening
TTITLE1=Around the world
TTITLE2=Give it Away
TTITLE3=Sear Tissue
TTITLE4=Suck my kiss
TTITLE5=If you have to ask
TTITLE6=subterranean homesick blues
TTITLE7=Otherside
TTITLE8=Blackeyed blonde
TTITLE9=Pea
TTITLE10=Blood sugar sex magik
TTITLE11=Easily
TTITLE12=What is soul
TTITLE13=Fire
TTITLE14=Californication
TTITLE15=Rigth on time
TTITLE16=Under the Brige
TTITLE17=Me and Friend
TTITLE18=Icould have lied
TTITLE19=Parallel universe
EXTD=
EXTT0=
EXTT1=
EXTT2=
EXTT3=
EXTT4=
EXTT5=
EXTT6=
EXTT7=
EXTT8=
EXTT9=
EXTT10=
EXTT11=
EXTT12=
EXTT13=
EXTT14=
EXTT15=
EXTT16=
EXTT17=
EXTT18=
EXTT19=
PLAYORDER=
